<svg width="1677" height="431" viewBox="0 0 1677 431" fill="none" xmlns="http://www.w3.org/2000/svg">
<g style="mix-blend-mode:screen" filter="url(#filter0_f_2_29)">
<path d="M64.3516 198.169C64.3516 192.646 68.8287 188.169 74.3516 188.169H114.292C119.815 188.169 124.292 192.646 124.292 198.169V555.495H64.3516V198.169Z" fill="url(#paint0_linear_2_29)" fill-opacity="0.3" style="mix-blend-mode:darken"/>
<path d="M189.027 129.084C189.027 123.561 193.505 119.084 199.027 119.084H238.968C244.491 119.084 248.968 123.561 248.968 129.084V555.495H189.027V129.084Z" fill="url(#paint1_linear_2_29)" fill-opacity="0.3" style="mix-blend-mode:darken"/>
<path d="M313.703 60C313.703 54.4772 318.18 50 323.703 50H363.643C369.166 50 373.643 54.4772 373.643 60V555.333H313.703V60Z" fill="url(#paint2_linear_2_29)" fill-opacity="0.3" style="mix-blend-mode:darken"/>
<path d="M438.379 162.784C438.379 157.261 442.856 152.784 448.379 152.784H488.319C493.842 152.784 498.319 157.261 498.319 162.784V555.333H438.379V162.784Z" fill="url(#paint3_linear_2_29)" fill-opacity="0.3" style="mix-blend-mode:darken"/>
<path d="M563.055 265.568C563.055 260.045 567.532 255.568 573.055 255.568H612.995C618.518 255.568 622.995 260.045 622.995 265.568V555.495H563.055V265.568Z" fill="url(#paint4_linear_2_29)" fill-opacity="0.3" style="mix-blend-mode:darken"/>
</g>
<g style="mix-blend-mode:screen" filter="url(#filter1_f_2_29)">
<path d="M1060.2 390.282C1060.2 384.76 1064.67 380.282 1070.2 380.282H1103C1108.52 380.282 1113 384.76 1113 390.282V578H1060.2V390.282Z" fill="url(#paint5_linear_2_29)" fill-opacity="0.3" style="mix-blend-mode:darken"/>
<path d="M1170.03 409.69C1170.03 404.167 1174.51 399.69 1180.03 399.69H1212.83C1218.36 399.69 1222.83 404.167 1222.83 409.69V577.863H1170.03V409.69Z" fill="url(#paint6_linear_2_29)" fill-opacity="0.3" style="mix-blend-mode:darken"/>
<path d="M1279.86 277.911C1279.86 272.388 1284.34 267.911 1289.86 267.911H1322.67C1328.19 267.911 1332.67 272.388 1332.67 277.911V578H1279.86V277.911Z" fill="url(#paint7_linear_2_29)" fill-opacity="0.3" style="mix-blend-mode:darken"/>
<path d="M1389.7 219.591C1389.7 214.068 1394.17 209.591 1399.7 209.591H1432.5C1438.02 209.591 1442.5 214.068 1442.5 219.591V578H1389.7V219.591Z" fill="url(#paint8_linear_2_29)" fill-opacity="0.3" style="mix-blend-mode:darken"/>
<path d="M1499.53 161.272C1499.53 155.749 1504.01 151.272 1509.53 151.272H1542.33C1547.86 151.272 1552.33 155.749 1552.33 161.272V577.863H1499.53V161.272Z" fill="url(#paint9_linear_2_29)" fill-opacity="0.3" style="mix-blend-mode:darken"/>
<path d="M1609.36 248.04C1609.36 242.517 1613.84 238.04 1619.36 238.04H1652.17C1657.69 238.04 1662.17 242.517 1662.17 248.04V577.863H1609.36V248.04Z" fill="url(#paint10_linear_2_29)" fill-opacity="0.3" style="mix-blend-mode:darken"/>
</g>
<defs>
<filter id="filter0_f_2_29" x="-235" y="0" width="907.995" height="605.495" filterUnits="userSpaceOnUse" color-interpolation-filters="sRGB">
<feFlood flood-opacity="0" result="BackgroundImageFix"/>
<feBlend mode="normal" in="SourceGraphic" in2="BackgroundImageFix" result="shape"/>
<feGaussianBlur stdDeviation="25" result="effect1_foregroundBlur_2_29"/>
</filter>
<filter id="filter1_f_2_29" x="1010.2" y="101.272" width="811.804" height="526.728" filterUnits="userSpaceOnUse" color-interpolation-filters="sRGB">
<feFlood flood-opacity="0" result="BackgroundImageFix"/>
<feBlend mode="normal" in="SourceGraphic" in2="BackgroundImageFix" result="shape"/>
<feGaussianBlur stdDeviation="25" result="effect1_foregroundBlur_2_29"/>
</filter>
<linearGradient id="paint0_linear_2_29" x1="69.1294" y1="369.091" x2="100.421" y2="369.121" gradientUnits="userSpaceOnUse">
<stop stop-color="white" stop-opacity="0"/>
<stop offset="1" stop-color="white"/>
</linearGradient>
<linearGradient id="paint1_linear_2_29" x1="193.805" y1="334.033" x2="225.097" y2="334.058" gradientUnits="userSpaceOnUse">
<stop stop-color="white" stop-opacity="0"/>
<stop offset="1" stop-color="white"/>
</linearGradient>
<linearGradient id="paint2_linear_2_29" x1="318.481" y1="298.895" x2="349.773" y2="298.917" gradientUnits="userSpaceOnUse">
<stop stop-color="white" stop-opacity="0"/>
<stop offset="1" stop-color="white"/>
</linearGradient>
<linearGradient id="paint3_linear_2_29" x1="443.157" y1="351.054" x2="474.448" y2="351.082" gradientUnits="userSpaceOnUse">
<stop stop-color="white" stop-opacity="0"/>
<stop offset="1" stop-color="white"/>
</linearGradient>
<linearGradient id="paint4_linear_2_29" x1="567.833" y1="403.293" x2="599.124" y2="403.33" gradientUnits="userSpaceOnUse">
<stop stop-color="white" stop-opacity="0"/>
<stop offset="1" stop-color="white"/>
</linearGradient>
<linearGradient id="paint5_linear_2_29" x1="1064.4" y1="477.666" x2="1091.97" y2="477.709" gradientUnits="userSpaceOnUse">
<stop stop-color="white" stop-opacity="0"/>
<stop offset="1" stop-color="white"/>
</linearGradient>
<linearGradient id="paint6_linear_2_29" x1="1174.24" y1="487.447" x2="1201.8" y2="487.495" gradientUnits="userSpaceOnUse">
<stop stop-color="white" stop-opacity="0"/>
<stop offset="1" stop-color="white"/>
</linearGradient>
<linearGradient id="paint7_linear_2_29" x1="1284.07" y1="420.641" x2="1311.64" y2="420.669" gradientUnits="userSpaceOnUse">
<stop stop-color="white" stop-opacity="0"/>
<stop offset="1" stop-color="white"/>
</linearGradient>
<linearGradient id="paint8_linear_2_29" x1="1393.9" y1="391.046" x2="1421.47" y2="391.069" gradientUnits="userSpaceOnUse">
<stop stop-color="white" stop-opacity="0"/>
<stop offset="1" stop-color="white"/>
</linearGradient>
<linearGradient id="paint9_linear_2_29" x1="1503.74" y1="361.384" x2="1531.3" y2="361.404" gradientUnits="userSpaceOnUse">
<stop stop-color="white" stop-opacity="0"/>
<stop offset="1" stop-color="white"/>
</linearGradient>
<linearGradient id="paint10_linear_2_29" x1="1613.57" y1="405.415" x2="1641.14" y2="405.441" gradientUnits="userSpaceOnUse">
<stop stop-color="white" stop-opacity="0"/>
<stop offset="1" stop-color="white"/>
</linearGradient>
</defs>
</svg>
